<svg id="Capa_1" enable-background="new 0 0 512 512" height="512" viewBox="0 0 512 512" width="512" xmlns="http://www.w3.org/2000/svg"><g><path d="m512 256c0 141.385-114.615 256-256 256s-256-114.615-256-256c0-96.206 53.069-180.018 131.531-223.757.525-.293 1.53.846 2.058.557 2.077-1.139 4.172-2.25 6.284-3.332.7-.359.924-2.145 1.628-2.497 9.453-4.735 19.239-8.902 29.315-12.456.48-.169 1.321.822 1.802.656 2.18-.754 4.373-1.48 6.579-2.176.491-.155.623-1.468 1.115-1.62 23.919-7.394 49.339-11.375 75.688-11.375s51.769 3.981 75.69 11.374c.618.191 1.205 1.749 1.821 1.944 2.004.636 3.996 1.296 5.978 1.98.556.192 1.141-.979 1.696-.783 10.076 3.554 19.862 7.721 29.315 12.456.636.319 1.271 2.11 1.905 2.434 2.173 1.111 3.926 1.701 6.063 2.872.534.293 1.469-.33 2.001-.033 78.462 43.738 131.531 127.55 131.531 223.756z" fill="#2b3894"/><path d="m462 274c0 113.771-92.229 206-206 206s-206-92.229-206-206 92.229-206 206-206 206 92.229 206 206z" fill="#3342ae"/><path d="m199.576 188.174h75.232l-15 323.826h-22.416c-4.249 0-8.085-2.541-9.743-6.453l-97.722-230.6c-3.368-7.948-1.525-17.148 4.646-23.184z" fill="#55a4f9"/><path d="m199.576 188.174h75.232l-3.409 73.597h-142.532c.911-3.723 2.842-7.206 5.706-10.008z" fill="#76b6fa"/><path d="m376.982 251.328c6.39 6.251 8.118 15.865 4.304 23.949l-108.808 230.656c-1.747 3.704-5.475 6.067-9.57 6.067h-13.716l-12-323.826h75.232z" fill="#76b6fa"/><path d="m382.79 261.771h-142.871l-2.727-73.597h75.232l64.557 63.154c2.98 2.915 4.946 6.561 5.809 10.443z" fill="#86befb"/><path d="m312 261.771-53.851 250.229h-16.687l-41.462-250.229 32-73.597h48z" fill="#a7d0fc"/><path d="m312 261.771h-112l32-73.597h48z" fill="#c8e2fd"/><path d="m101.109 309.969 5.692 11.979c.2.421.539.76.961.961l11.979 5.692c1.542.733 1.542 2.927 0 3.66l-11.979 5.692c-.421.2-.76.539-.961.961l-5.692 11.979c-.733 1.542-2.927 1.542-3.66 0l-5.692-11.979c-.2-.421-.539-.76-.961-.961l-11.979-5.692c-1.542-.733-1.542-2.927 0-3.66l11.979-5.692c.421-.2.76-.539.961-.961l5.692-11.979c.732-1.542 2.927-1.542 3.66 0zm284.085 88.293-5.618 11.825c-.198.416-.532.751-.948.948l-11.825 5.618c-1.522.723-1.522 2.89 0 3.613l11.825 5.618c.416.198.751.532.948.948l5.618 11.825c.723 1.522 2.89 1.522 3.613 0l5.618-11.825c.198-.416.532-.751.948-.948l11.825-5.618c1.522-.723 1.522-2.89 0-3.613l-11.825-5.618c-.416-.198-.751-.532-.948-.948l-5.618-11.825c-.724-1.522-2.89-1.522-3.613 0z" fill="#ffc14f"/><path d="m223.42 69.565-8.485-8.485c-4.722-4.722-11-7.322-17.678-7.322s-12.956 2.601-17.678 7.322c-4.722 4.722-7.322 11-7.322 17.678s2.601 12.956 7.322 17.678l8.485 8.485c4.722 4.722 11 7.322 17.678 7.322s12.956-2.601 17.678-7.322c4.722-4.722 7.322-11 7.322-17.678s-2.6-12.956-7.322-17.678zm-7.071 28.284c-5.849 5.849-15.364 5.849-21.213 0l-8.485-8.485c-5.849-5.848-5.849-15.365 0-21.213 2.924-2.924 6.765-4.386 10.606-4.386s7.682 1.462 10.606 4.386l8.485 8.485c5.85 5.848 5.85 15.365.001 21.213zm45.651 7.151h-12c-13.785 0-25 11.215-25 25s11.215 25 25 25h12c13.785 0 25-11.215 25-25s-11.215-25-25-25zm0 40h-12c-8.271 0-15-6.729-15-15s6.729-15 15-15h12c8.271 0 15 6.729 15 15s-6.729 15-15 15zm70.42-83.92c-4.722-4.722-11-7.322-17.678-7.322s-12.956 2.601-17.678 7.322l-8.485 8.485c-4.722 4.722-7.322 11-7.322 17.678s2.601 12.956 7.322 17.678c4.722 4.722 11 7.322 17.678 7.322s12.956-2.601 17.678-7.322l8.485-8.485c4.722-4.722 7.322-11 7.322-17.678s-2.6-12.956-7.322-17.678zm-7.071 28.284-8.485 8.485c-5.849 5.849-15.364 5.849-21.213 0-5.849-5.848-5.849-15.365 0-21.213l8.485-8.485c2.924-2.924 6.765-4.386 10.606-4.386s7.682 1.462 10.606 4.386c5.85 5.848 5.85 15.365.001 21.213z" fill="#ff9f22"/><path d="m185.504 74c-1.616 0-3.201-.782-4.165-2.227l-20-30c-1.532-2.297-.911-5.402 1.387-6.934s5.402-.911 6.934 1.387l20 30c1.532 2.297.911 5.402-1.387 6.934-.852.569-1.815.84-2.769.84zm64.156 47.773c1.532-2.297.911-5.402-1.387-6.934l-30-20c-2.298-1.532-5.402-.912-6.934 1.387-1.532 2.297-.911 5.402 1.387 6.934l30 20c.853.568 1.816.84 2.769.84 1.616 0 3.202-.781 4.165-2.227zm81-50 20-30c1.532-2.297.911-5.402-1.387-6.934s-5.402-.912-6.934 1.387l-20 30c-1.532 2.297-.911 5.402 1.387 6.934.853.568 1.816.84 2.769.84 1.616 0 3.202-.781 4.165-2.227zm-61.387 51.387 30-20c2.298-1.532 2.918-4.636 1.387-6.934-1.532-2.298-4.636-2.918-6.934-1.387l-30 20c-2.298 1.532-2.918 4.636-1.387 6.934.963 1.445 2.549 2.227 4.165 2.227.954 0 1.917-.271 2.769-.84zm-8.273 35.84v-20c0-2.761-2.239-5-5-5s-5 2.239-5 5v20c0 2.761 2.239 5 5 5s5-2.239 5-5z" fill="#ffc14f"/><path d="m282 175c0 8.284-6.716 15-15 15 0 0-7 2.085-7 3.174 0 8.284-6.716 15-15 15h-49c-8.284 0-15-6.716-15-15s6.716-15 15-15h34.337c-.22-1.023-.337-2.085-.337-3.174 0-8.284 6.716-15 15-15h22c8.284 0 15 6.716 15 15z" fill="#ff9f22"/><path d="m331 193c0 8.284-6.716 15-15 15h-81c-8.284 0-15-6.716-15-15s6.716-15 15-15h81c8.284 0 15 6.716 15 15z" fill="#ffc14f"/><path d="m380.469 32.243c-.65 13.21-11.601 23.757-24.969 23.757-13.785 0-25-11.215-25-25v-12c0-2.658.417-5.221 1.19-7.626 3.192.987 6.358 2.034 9.495 3.141-.445 1.417-.685 2.923-.685 4.485v12c0 8.271 6.729 15 15 15s15-6.729 15-15v-4.029c3.366 1.686 6.69 3.444 9.969 5.272zm-209.654-17.728c.445 1.417.685 2.924.685 4.485v12c0 8.271-6.729 15-15 15s-15-6.729-15-15v-4.029c-3.366 1.686-6.69 3.445-9.969 5.273.65 13.209 11.601 23.756 24.969 23.756 13.785 0 25-11.215 25-25v-12c0-2.658-.417-5.221-1.19-7.626-3.192.987-6.357 2.034-9.495 3.141z" fill="#ff9f22"/><path d="m131.501 178.817 5.692 11.979c.2.421.539.76.961.961l11.979 5.692c1.542.733 1.542 2.927 0 3.66l-11.979 5.692c-.421.2-.76.539-.961.961l-5.692 11.979c-.733 1.542-2.927 1.542-3.66 0l-5.692-11.979c-.2-.421-.539-.76-.961-.961l-11.979-5.692c-1.542-.733-1.542-2.927 0-3.66l11.979-5.692c.421-.2.76-.539.961-.961l5.692-11.979c.732-1.542 2.927-1.542 3.66 0zm35.849 180.326-9.281 19.534c-.2.421-.539.76-.961.961l-19.534 9.281c-1.542.733-1.542 2.927 0 3.66l19.534 9.281c.421.2.76.539.961.961l9.281 19.534c.733 1.542 2.927 1.542 3.66 0l9.281-19.534c.2-.421.539-.76.961-.961l19.534-9.281c1.542-.733 1.542-2.927 0-3.66l-19.534-9.281c-.421-.2-.76-.539-.961-.961l-9.281-19.534c-.732-1.543-2.927-1.543-3.66 0zm192.483-70.915-9.281 19.534c-.2.421-.539.76-.961.961l-19.534 9.281c-1.542.733-1.542 2.927 0 3.66l19.534 9.281c.421.2.76.539.961.961l9.281 19.534c.733 1.542 2.927 1.542 3.66 0l9.281-19.534c.2-.421.539-.76.961-.961l19.534-9.281c1.542-.733 1.542-2.927 0-3.66l-19.534-9.281c-.421-.2-.76-.539-.961-.961l-9.281-19.534c-.733-1.542-2.928-1.542-3.66 0z" fill="#fff5f5"/></g></svg>