<svg width="119" height="30" viewBox="0 0 119 30" fill="none" xmlns="http://www.w3.org/2000/svg">
<path d="M37.269 29.7419L48.6086 0.17627H57.7446L69.0842 29.7419H60.086L57.6069 23.4523H48.7005L46.2673 29.7419H37.269ZM49.8482 17.2545H56.4591L53.1537 8.57768L49.8482 17.2545Z" fill="white"/>
<path d="M0 29.7931V0.227539H8.40141L15.7469 15.2399L23.0465 0.227539H31.402V29.7931H22.771V15.0103L18.0424 24.7431H13.4055L8.63095 15.0103V29.7931H0Z" fill="white"/>
<path d="M110.369 29.7931V0.227539H119V29.7931H110.369Z" fill="white"/>
<path d="M89.679 10.4405L74.8674 0.177114V9.29576L83.0996 14.9998L74.8674 20.7051V29.8237L89.679 19.5591L104.491 29.8237V20.7051L96.2573 14.9998L89.679 10.4405Z" fill="#FFCB08"/>
<path d="M93.27 11.397H104.491V0.176188H93.27V11.397Z" fill="#FFCB08"/>
</svg>
